# xmcd CD database file
#
# Track frame offsets:
#	150
#	14910
#	28391
#	52398
#	67449
#	86130
#	103918
#	123355
#	137547
#	164382
#	185210
#
# Disc length: 2764 seconds
#
# Revision: 1
# Processed by: cddbd v1.5.2PL0 Copyright (c) Steve Scherf et al.
# Submitted via: CDex 1.51
#
DISCID=b60aca0b
DTITLE=Randy Houser - They Call Me Cadillac
DYEAR=2010
DGENRE=Country
TTITLE0=Lowdown And Lonesome
TTITLE1=They Call Me Cadillac
TTITLE2=Addicted
TTITLE3=A Man Like Me
TTITLE4=Will I Always Be This Way
TTITLE5=Out Here In The Country
TTITLE6=Here With Me
TTITLE7=Whistlin' Dixie
TTITLE8=Somewhere South Of Memphis
TTITLE9=If I Could Buy Me Some Time
TTITLE10=Lead Me Home
EXTD=YEAR: 2010
EXTT0=
EXTT1=
EXTT2=
EXTT3=
EXTT4=
EXTT5=
EXTT6=
EXTT7=
EXTT8=
EXTT9=
EXTT10=
PLAYORDER=
